<!-- Generated by IcoMoon.io -->
<svg version="1.1" xmlns="http://www.w3.org/2000/svg" width="25" height="24" viewBox="0 0 25 24">
<title>logo</title>
<path fill="#ffc727" d="M16.83 3.231c-1.664-0.416-3.329-1.248-4.577-2.496-1.248 1.248-2.912 2.080-4.577 2.496 0.416 3.745 1.664 6.241 4.577 8.321 2.912-2.080 4.577-4.577 4.577-8.321z"></path>
<path fill="#fbfbfb" d="M15.166 18.722l-11.65-13.73v6.657l9.153 10.402 2.496-3.328z"></path>
<path fill="#fbfbfb" d="M16.414 17.474l4.993-5.825v-6.241l-7.905 9.153 2.912 2.912z"></path>
<path fill="#fbfbfb" d="M16.83 19.555v3.745l4.577-5.409v-3.745l-4.577 5.409z"></path>
<path fill="#fbfbfb" d="M8.093 19.555l-4.577-5.409v3.745l4.577 5.409v-3.745z"></path>
</svg>
